<?xml version="1.0" standalone="no"?>
<!DOCTYPE svg PUBLIC "-//W3C//DTD SVG 1.1//EN" "http://www.w3.org/Graphics/SVG/1.1/DTD/svg11.dtd" >
<svg xmlns="http://www.w3.org/2000/svg">
<metadata>
Created by FontForge 20120731 at Fri Mar 24 15:06:33 2017
 By admin
</metadata>
<defs>
<font id="iconfont" horiz-adv-x="1024" >
  <font-face 
    font-family="iconfont"
    font-weight="500"
    font-stretch="normal"
    units-per-em="1024"
    panose-1="2 0 6 3 0 0 0 0 0 0"
    ascent="896"
    descent="-128"
    x-height="792"
    bbox="-0.153846 -1278 1894 896"
    underline-thickness="0"
    underline-position="0"
    unicode-range="U+0078-F0031"
  />
<missing-glyph 
 />
    <glyph glyph-name=".notdef" 
 />
    <glyph glyph-name=".null" horiz-adv-x="0" 
 />
    <glyph glyph-name="nonmarkingreturn" horiz-adv-x="341" 
 />
    <glyph glyph-name="x" unicode="x" horiz-adv-x="1001" 
d="M281 543q-27 -1 -53 -1h-83q-18 0 -36.5 -6t-32.5 -18.5t-23 -32t-9 -45.5v-76h912v41q0 16 -0.5 30t-0.5 18q0 13 -5 29t-17 29.5t-31.5 22.5t-49.5 9h-133v-97h-438v97zM955 310v-52q0 -23 0.5 -52t0.5 -58t-10.5 -47.5t-26 -30t-33 -16t-31.5 -4.5q-14 -1 -29.5 -0.5
t-29.5 0.5h-32l-45 128h-439l-44 -128h-29h-34q-20 0 -45 1q-25 0 -41 9.5t-25.5 23t-13.5 29.5t-4 30v167h911zM163 247q-12 0 -21 -8.5t-9 -21.5t9 -21.5t21 -8.5q13 0 22 8.5t9 21.5t-9 21.5t-22 8.5zM316 123q-8 -26 -14 -48q-5 -19 -10.5 -37t-7.5 -25t-3 -15t1 -14.5
t9.5 -10.5t21.5 -4h37h67h81h80h64h36q23 0 34 12t2 38q-5 13 -9.5 30.5t-9.5 34.5q-5 19 -11 39h-368zM336 498v228q0 11 2.5 23t10 21.5t20.5 15.5t34 6h188q31 0 51.5 -14.5t20.5 -52.5v-227h-327z" />
    <glyph glyph-name="guanbi" unicode="&#xf0031;" 
d="M522 304zM80 304q0 90 35 171.5t94 141t141 94.5t172 35t171.5 -35t141 -94.5t94.5 -141t35 -171.5t-35 -172t-94.5 -141t-141 -94t-171.5 -35t-172 35t-141 94t-94 141t-35 172zM568 402l65 63q1 1 2.5 2t6.5 3t9.5 3t10.5 -0.5t11 -6.5q3 -2 11.5 -9t13 -12t9.5 -13
t3 -17t-10 -19l-108 -106l105 -107q11 -17 -2 -34q-1 -1 -3 -4q-6 -8 -10 -12.5t-11.5 -12.5t-13.5 -10.5t-14 -2.5t-14 6q-14 12 -40 39.5t-45.5 49l-19.5 21.5l-109 -106q-3 -3 -7.5 -6.5t-18.5 -4t-27 12.5q-22 23 -26.5 37.5t6.5 28.5q7 9 35 36t52.5 49.5l24.5 22.5
l-108 109q-12 23 6 42q1 1 3 4q8 9 13 13.5t13 9.5t16 4t16 -8q11 -8 38.5 -35.5t49.5 -50.5l22 -23z" />
    <glyph glyph-name="guanbi1" unicode="&#xf0014;" 
d="M512 747q-91 0 -174 -35t-142.5 -95t-95 -143t-35.5 -174t35.5 -174t95 -143t142.5 -95.5t174 -35.5t174 35.5t143 95.5t95.5 143t35.5 174t-35.5 174t-95.5 143t-143 95t-174 35zM512.5 -107q-110.5 0 -204.5 54.5t-148.5 148.5t-54.5 204t54.5 204t148.5 148.5
t204.5 54.5t204 -54.5t148 -148.5t54.5 -204t-54.5 -204t-148 -148.5t-204 -54.5zM648 436q-13 13 -31 13t-32 -13l-73 -74l-73 74q-13 13 -31.5 13t-31.5 -13t-13 -31.5t13 -32.5l73 -74l-69 -70v-0.5v-0.5l-2 -1v0q-11 -14 -10.5 -31.5t13 -30t30 -13.5t30.5 11v0l1 1l1 1
l69 70l69 -70q13 -13 31.5 -13t31.5 13t13 32t-13 32l-69 70l73 74q13 14 13 32.5t-13 31.5z" />
    <glyph glyph-name="youshang" unicode="&#xf0029;" 
d="M833 684v0h-384q-27 0 -46 -19t-19 -45.5t19 -45t46 -18.5h229l-531 -532q-19 -18 -19 -45t19 -45.5t45.5 -18.5t45.5 19l531 531v-230q0 -26 18.5 -45t45.5 -19t45.5 19t18.5 45v449h-64v0z" />
    <glyph glyph-name="zuoxia" unicode="&#xf002d;" 
d="M192 -85v0h385q26 0 45 18.5t19 45.5t-19 45.5t-45 18.5h-230l531 531q19 19 19 45.5t-18.5 45.5t-45.5 19t-45 -19l-532 -531v229q0 27 -18.5 46t-45 19t-45.5 -19t-19 -46v-448h64v0z" />
    <glyph glyph-name="arrow-lowright" unicode="&#xe61c;" 
d="M896 352q0 27 -18.5 45.5t-45.5 18.5t-45.5 -18.5t-18.5 -45.5v-229l-531 530q-18 19 -45 19t-45.5 -18.5t-18.5 -45.5t19 -45l530 -531h-229q-27 0 -45.5 -18.5t-18.5 -45.5t18.5 -45.5t45.5 -18.5h448v448z" />
    <glyph glyph-name="arrow-upperleft" unicode="&#xe61d;" 
d="M128 224q0 -27 18.5 -45.5t45.5 -18.5t45.5 18.5t18.5 45.5v229l531 -530q18 -19 45 -19t45.5 18.5t18.5 45.5t-19 45l-530 531h229q27 0 45.5 18.5t18.5 45.5t-18.5 45.5t-45.5 18.5h-448v-448z" />
    <glyph glyph-name="pen" unicode="&#xe603;" 
d="M237 221l373 373l54 -53l-374 -374zM290 167l374 374l54 -54l-374 -374zM344 114l374 374l53 -54l-373 -374zM771 434l-161 161l37 36l161 -161zM1418 252l54 53q1 0 3.5 1.5l5 3t6 3t7.5 1.5h8.5t10 -2.5t10.5 -6.5l103 -105q24 -22 3 -54l-50 -54zM1615 -455l81 -80z
M1615 -455l81 -80l120 36l-161 160zM1813 -1162l-39 -116l120 36zM1813 -1162l81 -80zM206 180l431 428l62 -62l-431 -428zM268 119l431 428l62 -62l-431 -428zM330 58l431 428l62 -62l-431 -428zM823 424l-186 184l42 42l186 -184zM1502 262l63 60l3 2t5.5 3t7 3t9 2.5
t10 0t11.5 -3t11 -7.5l120 -120q27 -25 4 -62l-881 326l-186 184zM840 -115l92 -92zM840 -115l92 -92l139 42l-186 182zM1001 -880l-46 -133l139 42zM1001 -880l93 -91z" />
    <glyph glyph-name="xiangji" unicode="&#xe631;" 
d="M831 -49h-638q-52 0 -89.5 36.5t-37.5 87.5v372q0 51 37.5 87.5t89.5 36.5h90q14 35 46 56t72 21h223q39 0 71.5 -21t46.5 -56h89q53 0 90.5 -36.5t37.5 -87.5v-372q0 -51 -37.5 -87.5t-90.5 -36.5v0zM512 493q-92 0 -157.5 -63.5t-65.5 -153t65.5 -153.5t158 -64
t157.5 64t65 153.5t-65 153t-158 63.5v0zM512 121q-66 0 -112.5 45.5t-46.5 110t46.5 109.5t112.5 45t113 -45t47 -109.5t-47 -110t-113 -45.5v0z" />
    <glyph glyph-name="left" unicode="&#xe612;" 
d="M748 697l-48 48l-446 -447l446 -446l48 48l-398 398z" />
    <glyph glyph-name="hot" unicode="&#xe66a;" 
d="M597.5 217q-6.5 8 -15.5 13.5t-19 8t-21 2.5q-16 0 -29.5 -5t-25.5 -16q-5 -5 -9 -12.5t-7 -16.5q-6 -18 -6 -45q0 -21 5 -38q6 -16 17 -27.5t24.5 -17t29.5 -5.5q17 0 31 5.5t24.5 17.5t16.5 29q5 17 5 39q0 29 -9 50q-5 10 -11.5 18zM681 624q16 -36 25 -65.5t10 -49
t-2 -34t-11 -22t-16.5 -12t-20 -5.5t-19.5 -0.5t-17 1.5t-11 1q-46 -1 -72 21.5t-31 56.5t0.5 75t19 77.5t27.5 63t24 32.5q-2 0 -21.5 1.5t-42.5 -1t-52.5 -12t-62 -37t-60.5 -70.5q-26 -45 -32.5 -91t-0.5 -78.5t10.5 -60.5t-6 -47t-44.5 -29q-13 -6 -23.5 -6t-17 4.5
t-11 12t-6.5 18.5t-3 21.5t0.5 24.5t2.5 24.5t3 23.5t3.5 20t3.5 14q-16 1 -48 -59q-62 -116 -65 -240q-5 -205 176 -285q104 -45 264 -45q279 0 358 177q57 128 -2 306q-45 137 -129 219q-53 53 -100 55zM387 19h-48v116h-113v-116h-40h-8v262h48v-102h113v102h48v-262z
M651 79q-8 -16 -19.5 -28t-26.5 -20q-29 -17 -64 -17q-18 0 -34.5 4.5t-31 13.5t-26 21.5t-18.5 27.5q-15 31 -15 65q0 32 9 58q8 25 26 43.5t40.5 28t50.5 9.5q18 0 34.5 -4.5t31 -13t25.5 -21t19 -27.5q15 -31 15 -70t-16 -70zM805 236v-217h-41h-7v217h-82v45h211v-45
h-81z" />
    <glyph glyph-name="icontitlehuishouye" unicode="&#xe635;" 
d="M950 291l-415 416q-5 4 -12 7q-19 8 -35 -7l-415 -416q-10 -9 -10 -22.5t9.5 -23t23 -9.5t22.5 10l393 393l394 -393q9 -10 22.5 -10t22.5 9.5t9 23t-9 22.5zM770 278q-13 0 -22.5 -9.5t-9.5 -22.5v-266h-453v266q0 13 -9.5 22.5t-23 9.5t-22.5 -9.5t-9 -22.5v-298
q0 -12 8.5 -21.5t21.5 -9.5q1 -1 2 -1h517q1 0 2 1h4q8 2 14 6q1 2 2 3h1q1 2 2 3h1q2 3 3 7l0.5 0.5l0.5 0.5v1t1 2v2v0q1 3 1 6v298q0 13 -9.5 22.5t-22.5 9.5z" />
    <glyph glyph-name="star" unicode="&#xe63e;" 
d="M325 234l-48 -200q-3 -13 8 -21t23 -1l179 106l179 -106q5 -3 11 -3q7 0 12 4q11 8 8 21l-48 200l159 134q10 9 6 22t-18 14l-209 17l-81 190q-5 12 -18.5 12t-19.5 -12l-81 -190l-209 -17q-13 -1 -17.5 -14t6.5 -22zM403 381q12 1 17 13l67 157l67 -157q5 -12 17 -13
l172 -14l-130 -110q-10 -8 -7 -20l40 -165l-148 88q-11 6 -21 0l-149 -88l40 165q3 12 -7 20l-130 110z" />
    <glyph glyph-name="hoteledit" unicode="&#xe74d;" 
d="M759 12q0 -14 -10 -24.5t-25 -10.5h-559q-15 0 -25 10.5t-10 24.5v560q0 15 10 25t25 10h484l103 103q-14 2 -28 2h-559q-58 0 -99 -41t-41 -99v-560q0 -58 41 -99t99 -41h559q58 0 99 41t41 99v311l-105 -105v-206zM449 307v0v0v0l-72 -222l222 72v0v0v0l402 402
l-150 150l-402 -402v0zM580 187l-149 -48l48 150z" />
    <glyph glyph-name="search" unicode="&#xe714;" 
d="M400.5 59q-94.5 0 -175 46.5t-127 127t-46.5 175t46.5 174.5t127 127t175 47t174.5 -47t127 -127t47 -174.5t-47 -175t-127 -127t-174.5 -46.5zM400.5 699q-120.5 0 -206 -85.5t-85.5 -206t85.5 -206t206 -85.5t206 85.5t85.5 206t-85.5 206t-206 85.5zM194 515
q-4 0 -7 2q-12 7 -5 20q34 57 92.5 90.5t125.5 33.5q6 0 10 -4.5t4 -10t-4 -10t-10 -4.5q-59 0 -111 -29.5t-83 -80.5q-4 -7 -12 -7zM161 401q-6 0 -10.5 4.5t-4.5 9.5q0 22 7 50q1 6 6 9t11 1.5t9 -6.5t2 -10q-6 -26 -6 -44q0 -5 -4 -9.5t-10 -4.5zM887 -156q-35 0 -60 25
l-230 230q-27 28 -16 62q6 20 30 44q34 34 63 34q24 0 44 -19l229 -230q25 -25 25 -60.5t-25 -60.5t-60 -25zM635 142v0q1 -1 2 -3l230 -229q8 -8 20 -8t20 8t8 20t-8 20l-229 229q-3 3 -4 3q-12 -7 -22 -17q-17 -17 -17 -23v0z" />
    <glyph glyph-name="weizhi" unicode="&#xe634;" 
d="M797 405q0 -38 -71.5 -157.5t-142 -221t-71.5 -101.5q-12 17 -31 44t-68 100t-86.5 133t-68.5 120t-31 83q0 118 83.5 201.5t201.5 83.5t201.5 -83.5t83.5 -201.5zM167 405q0 -28 33.5 -95.5t79.5 -142.5t95 -149.5t80 -119.5t33 -48h48q13 19 34.5 50.5t77 116t97.5 154
t77 138.5t35 96q0 94 -46.5 173t-125.5 125.5t-173 46.5t-173 -46.5t-125.5 -125.5t-46.5 -173zM422 405q0 37 26.5 63.5t63.5 26.5t63.5 -26.5t26.5 -63.5t-26.5 -63.5t-63.5 -26.5t-63.5 26.5t-26.5 63.5zM362 405q0 -62 44 -106t106 -44t106 44t44 106t-44 106t-106 44
t-106 -44t-44 -106z" />
    <glyph glyph-name="eye" unicode="&#xe614;" 
d="M977 298q-2 3 -6 5q-31 25 -94 91q-27 28 -40 42q-147 146 -318 148v0h-2h-2h-1h-4q-169 -5 -313 -150q-15 -16 -40 -42q-61 -65 -91 -90q-10 -5 -14 -15q-3 -12 4 -22q3 -5 8 -8q31 -24 94 -91q29 -30 40 -42q145 -144 314 -148h4h3h1h1h3q170 5 314 150q10 11 40 42
q61 66 91 90q12 5 14.5 17.5t-6.5 22.5zM518 107.5q-72 -0.5 -122.5 50t-51 122t50 122.5t122.5 51t122.5 -50.5t50.5 -122t-50 -122t-122 -51zM517 324q0 19 10 34t25 23q-17 6 -35 6q-44 0 -75.5 -31.5t-31 -76t31.5 -75.5t75.5 -31t75.5 31.5t31 75.5v1q-18 -19 -44 -19
t-44.5 18.5t-18.5 43.5z" />
    <glyph glyph-name="heart" unicode="&#xe6ae;" 
d="M512 -139q-15 0 -25 10l-357 344q-5 5 -15 15.5t-32 37.5t-39 55.5t-30.5 69t-13.5 78.5q0 126 72.5 197t200.5 71q36 0 72.5 -12.5t68.5 -33t54.5 -39t43.5 -39.5q21 21 43.5 39.5t54.5 39t68.5 33t72.5 12.5q128 0 200.5 -71t72.5 -197t-131 -257l-356 -343
q-10 -10 -25 -10v0z" />
    <glyph glyph-name="account" unicode="&#xe6b8;" 
d="M794 579q0 122 -86.5 209t-208.5 87t-208 -87t-86 -209t86 -209t208 -87t208.5 87t86.5 209zM256 579q0 101 71 172.5t172 71.5t172 -71.5t71 -172.5t-71 -172.5t-172 -71.5t-172 71.5t-71 172.5zM0 -102v-26h26h460h512h26v26q0 85 -41.5 165.5t-111 140t-164 95.5
t-195.5 36q-25 0 -49 -2q-7 -1 6 -9q17 -11 17 -19q8 1 13 -10.5t13 -11.5q91 0 176.5 -32t147.5 -85t99.5 -123.5t37.5 -144.5l25 25h-512h-460l25 -25q0 102 60 190t164 141q10 4 13 14.5t-1.5 20t-14.5 12.5t-20 -1q-116 -59 -184 -159.5t-68 -217.5z" />
    <glyph glyph-name="shezhi" unicode="&#xe688;" 
d="M927 209l-18 10q-22 12 -35.5 34.5t-13.5 48.5t13.5 48.5t34.5 35.5l19 9q14 8 21.5 23t4.5 31q-5 16 -12 32v0q-7 16 -14 31q-10 13 -25.5 18.5t-31.5 0.5l-19 -6q-54 -14 -93.5 25.5t-24.5 92.5l6 20q5 15 -1 31t-19 25q-16 8 -31 14v0q-15 7 -32 12q-16 3 -31 -4
t-22 -22l-10 -18q-13 -22 -35 -35t-48.5 -13t-48.5 13t-35 35l-10 18q-7 15 -22 22t-31 4q-15 -4 -32 -11v0q-17 -7 -31 -15q-13 -9 -18.5 -25t-1.5 -31l7 -20q14 -53 -25.5 -92.5t-93.5 -25.5l-19 6q-16 5 -31.5 -0.5t-24.5 -18.5q-8 -15 -15 -31v0q-6 -15 -12 -32
q-2 -16 5 -31t21 -23l19 -9q22 -13 35 -35.5t13 -48.5t-13 -48t-35 -35l-19 -10q-14 -7 -21 -22t-5 -31l12 -32v0q7 -17 15 -32q9 -13 24.5 -18.5t31.5 -0.5l19 6q24 7 49.5 0.5t43.5 -25.5q40 -39 26 -93l-7 -20q-4 -15 1.5 -31t18.5 -25q16 -8 31 -14v0q15 -6 32 -12
q16 -3 31 4.5t22 21.5l10 18q13 22 35 35t48.5 13t48.5 -13t35 -35l10 -18q7 -14 22 -21.5t31 -4.5q16 5 32 12v0q17 7 31 14q13 9 19 25t1 31l-6 20q-15 54 25 93q18 19 43.5 25.5t49.5 -0.5l19 -6q16 -5 31.5 0.5t25.5 18.5q8 17 14 31v0q6 15 12 33q2 16 -5 31t-21 22v0z
M510 67q-98 0 -167 69t-69 166.5t69 166t166.5 68.5t166.5 -68.5t69 -166t-69 -166.5t-166 -69v0zM510 96z" />
    <glyph glyph-name="list" unicode="&#xe728;" 
d="M146 62v-109q0 -8 -5.5 -13.5t-12.5 -5.5h-110q-7 0 -12.5 5.5t-5.5 13.5v109q0 8 5.5 13.5t12.5 5.5h110q7 0 12.5 -5.5t5.5 -13.5zM146 282v-110q0 -7 -5.5 -12.5t-12.5 -5.5h-110q-7 0 -12.5 5.5t-5.5 12.5v110q0 7 5.5 12.5t12.5 5.5h110q7 0 12.5 -5.5t5.5 -12.5z
M146 501v-110q0 -7 -5.5 -12.5t-12.5 -5.5h-110q-7 0 -12.5 5.5t-5.5 12.5v110q0 8 5.5 13t12.5 5h110q7 0 12.5 -5t5.5 -13zM1024 62v-109q0 -8 -5.5 -13.5t-12.5 -5.5h-768q-8 0 -13.5 5.5t-5.5 13.5v109q0 8 5.5 13.5t13.5 5.5h768q7 0 12.5 -5.5t5.5 -13.5zM146 721
v-110q0 -8 -5.5 -13t-12.5 -5h-110q-7 0 -12.5 5t-5.5 13v110q0 7 5.5 12.5t12.5 5.5h110q7 0 12.5 -5.5t5.5 -12.5zM1024 282v-110q0 -7 -5.5 -12.5t-12.5 -5.5h-768q-8 0 -13.5 5.5t-5.5 12.5v110q0 7 5.5 12.5t13.5 5.5h768q7 0 12.5 -5.5t5.5 -12.5zM1024 501v-110
q0 -7 -5.5 -12.5t-12.5 -5.5h-768q-8 0 -13.5 5.5t-5.5 12.5v110q0 8 5.5 13t13.5 5h768q7 0 12.5 -5t5.5 -13zM1024 721v-110q0 -8 -5.5 -13t-12.5 -5h-768q-8 0 -13.5 5t-5.5 13v110q0 7 5.5 12.5t13.5 5.5h768q7 0 12.5 -5.5t5.5 -12.5z" />
    <glyph glyph-name="refresh" unicode="&#xe77c;" 
d="M937 209q0 -3 -1 -4q-37 -154 -153.5 -249t-272.5 -95q-84 0 -162 31.5t-139 89.5l-74 -73q-10 -11 -25 -11t-26 10.5t-11 25.5v256q0 15 11 26t26 11h256q15 0 25.5 -11t10.5 -26t-11 -25l-78 -79q41 -37 92.5 -58t106.5 -21q77 0 143 37.5t106 102.5q6 10 30 67
q5 13 18 13h109q8 0 13.5 -5.5t5.5 -12.5zM951 666v-256q0 -15 -11 -26t-26 -11h-256q-15 0 -25.5 11t-10.5 26t11 25l78 79q-84 79 -199 79q-77 0 -143 -37.5t-106 -102.5q-6 -10 -30 -67q-5 -13 -18 -13h-113q-8 0 -13.5 5.5t-5.5 12.5v4q38 154 155 249t274 95
q83 0 162 -32t140 -89l75 73q10 11 25 11t26 -10.5t11 -25.5z" />
    <glyph glyph-name="tuangoushenghuo" unicode="&#xe63d;" 
d="M837 584h-144v1q0 90 -52.5 153.5t-127.5 63.5t-127.5 -63.5t-52.5 -153.5v-1h-145l-72 -793h793zM698 476q0 -15 -10.5 -25.5t-25.5 -10.5q-7 0 -13 3q21 29 32 64q17 -11 17 -31zM392 449q-20 28 -31 63h8q15 0 25.5 -10.5t10.5 -25.5q0 -16 -13 -27zM626 476
q0 15 10.5 25.5t25.5 10.5q4 0 9 -1q-11 -35 -31 -63q-14 11 -14 28zM516.5 786q68.5 0 116.5 -59t49 -143h-331q0 84 48.5 143t117 59zM346 504q11 -34 32 -63q-5 -1 -9 -1q-15 0 -25.5 10.5t-10.5 25.5q0 17 13 28zM373 310h279q36 0 33 -33v-302q3 -36 -33 -33h-279
q-32 -3 -32 33v302q0 33 32 33zM645 290h-265q-20 0 -20 -20v-285q0 -26 20 -23h265q23 -3 20 20v288q3 20 -20 20zM550 270v-59h92q13 -10 0 -19h-92v-181q7 -55 -91 -23q-7 17 9 20q69 -26 63 3v145q-63 -99 -131 -138q-20 -3 -14 16q79 49 141 158h-141q-13 9 0 19h145
v59q10 17 19 0z" />
    <glyph glyph-name="shoucang" unicode="&#xe60a;" 
d="M1021 -151q0 -25 -16.5 -43t-40.5 -18h-904q-24 0 -40.5 18t-16.5 43v900q0 25 16.5 43t40.5 18h904q24 0 40.5 -18t16.5 -43v-900zM512 632q-32 0 -45 -27l-78 -162l-179 -27q-30 -4 -39.5 -32t11.5 -50l131 -131l-30 -182q-5 -29 20 -47q13 -9 29 -9q12 0 24 6l156 84
l156 -84q11 -6 24 -6q16 0 29 9q25 18 20 47l-30 182l131 131q21 22 11.5 50t-39.5 32l-179 27l-78 162q-13 27 -45 27v0v0zM542 598z" />
    <glyph glyph-name="back" unicode="&#xe619;" 
d="M336 720q-16 16 -39 16t-39.5 -16t-16.5 -39.5t17 -39.5l353 -353l-353 -353q-17 -16 -17 -39t16.5 -39.5t39.5 -16.5t39 17l432 431z" />
    <glyph glyph-name="qian" unicode="&#xe68a;" 
d="M229 675l21 14l254 -368h16l254 368l21 -14l-244 -354h272v-26h-290l-7 -11v-129h297v-25h-297v-219h-27v218h-298v27h298v127l-9 13h-289v25h272z" />
    <glyph glyph-name="fensi" unicode="&#xe616;" horiz-adv-x="1025" 
d="M1024 117q-2 55 -22.5 103t-46.5 78.5t-60 57t-54 37t-38 18.5q35 26 55 65t20 84q0 77 -54 131t-130 54t-129.5 -54t-53.5 -131q0 -44 19.5 -83t53.5 -65q-16 -6 -35 -16t-54.5 -36t-62.5 -57t-48.5 -80.5t-23.5 -105.5q-1 -41 7 -64t36 -47q33 183 96 270
q-10 -27 -23 -68t-33 -122t-15 -108q4 -18 8 -30t20.5 -32t42 -32t75.5 -21t118 -8q68 -1 118 8t75.5 21t42 32t20.5 32t7 30q5 27 -14.5 108t-33 122.5t-22.5 67.5v0q63 -87 96 -270q27 24 35.5 47t7.5 64zM361 264l-15 46q11 -14 21 -35q13 24 30 44q-40 53 -105 80
q50 37 50 98q0 51 -35.5 87t-85.5 36t-85.5 -36t-35.5 -87q0 -60 48 -97q-11 -5 -23.5 -11.5t-35.5 -23.5t-41 -37t-32.5 -53t-15.5 -69q-1 -28 4.5 -43t23.5 -31q22 121 63 178q-6 -17 -14.5 -44.5t-21.5 -81t-10 -71.5q2 -11 5 -19t13.5 -21t27.5 -21.5t50 -14.5t78 -5
q70 -1 111 13q-19 119 31 219z" />
    <glyph glyph-name="zan" unicode="&#xe61f;" 
d="M258 -17q-29 0 -49.5 20.5t-20.5 49.5v245q0 30 21 52.5t49 22.5h69q65 0 108 44t43 110v18q0 28 21.5 49t50.5 21h2q22 0 40.5 -13t25.5 -35l5 -12q21 -64 5 -127l-2 -10q-1 -12 -9 -29h149q34 0 56 -28q21 -28 11 -63l-75 -263q-6 -23 -25 -37.5t-43 -14.5h-432v0z
M258 337q-13 0 -23.5 -12t-10.5 -27v-245q0 -14 10 -24t24 -10h432q12 0 21 7t13 19l75 263q5 17 -6 32q-10 14 -27 14h-203v35h12q4 4 9.5 15.5t5.5 16.5v1v2l3 12q14 54 -4 107l-5 13q-3 10 -12 16.5t-20 6.5h-2q-14 0 -25 -10.5t-11 -23.5v-18q0 -81 -53.5 -135.5
t-133.5 -54.5h-69v0zM690 -4h-432q-23 0 -40 17t-17 40v245q0 25 17 43.5t40 18.5h69q70 0 117 48t47 119v18q0 23 18 40t41 17h2q18 0 33 -11t21 -28l5 -13q19 -59 4 -119l-2 -11q-1 -7 -6.5 -21t-13.5 -23h173q28 0 45 -23q18 -23 10 -51l-76 -263q-5 -19 -20.5 -31
t-34.5 -12v0zM258 351q-19 0 -33.5 -16t-14.5 -37v-245q0 -20 14 -34t34 -14h432q16 0 29 10.5t17 26.5l76 263q6 23 -8 43q-15 19 -38 19h-190v9q9 0 18 18t9 27l1 1l2 11q15 57 -4 114l-5 13q-5 14 -17.5 23t-27.5 9h-2q-19 0 -34 -14t-15 -33v-18q0 -75 -50 -125.5
t-124 -50.5h-69v0zM335 -1q-8 0 -13 5t-5 13v322q0 8 5 13t12.5 5t13 -5t5.5 -13v-322q0 -8 -5.5 -13t-12.5 -5v0zM335 12q-5 0 -5 5v322q0 5 4.5 5t4.5 -5v-322q0 -5 -4 -5v0zM335 12z" />
    <glyph glyph-name="down" unicode="&#xe675;" 
d="M499 50l-181 314l-181 313h362h362l-181 -313z" />
    <glyph glyph-name="right" unicode="&#xe67a;" 
d="M813 364l-314 -182l-314 -181v363v362l314 -181z" />
    <glyph glyph-name="jia" unicode="&#xe604;" 
d="M511.5 734q-90.5 0 -173 -35.5t-142 -95t-94.5 -142t-35 -172.5t35 -172.5t94.5 -142t142 -95t173 -35.5t173 35.5t142 95t94.5 142t35 172.5t-35 172.5t-94.5 142t-142 95t-173 35.5zM511.5 -100q-105.5 0 -195.5 52t-142 141.5t-52 195t52 195.5t142 142t195.5 52
t195 -52t142 -142t52.5 -195.5t-52.5 -195t-142 -141.5t-195 -52zM678 317h-139v139q0 11 -8 19.5t-19.5 8.5t-19.5 -8.5t-8 -19.5v-139h-139q-12 0 -20 -8.5t-8 -20t8 -19.5t20 -8h139v-139q0 -11 8 -19.5t19.5 -8.5t19.5 8.5t8 19.5v139h139q12 0 20 8t8 19.5t-8 20
t-20 8.5z" />
    <glyph glyph-name="shoucang1" unicode="&#xeb92;" horiz-adv-x="1025" 
d="M512 553q-32 76 -84 124.5t-107.5 64.5t-113 3t-103 -51.5t-74.5 -107.5t-30 -156q0 -37 8 -70t21 -58.5t34 -50.5t41 -43t48 -38t49.5 -33t51 -31.5t47.5 -29.5q81 -54 141.5 -122.5t71.5 -106.5q8 35 71 105t140 126q22 15 63 41t68.5 44t62.5 48t56 59.5t35.5 71.5
t14.5 90q-1 88 -30.5 156t-75.5 105t-104 48.5t-114 -4.5t-107 -63.5t-81 -120.5z" />
    <glyph glyph-name="discount" unicode="&#xe6c5;" 
d="M856 335l-399 -372q-22 -21 -54 -21t-54 22l-262 254q-22 21 -22 51t21 52l480 491l-17 -7h329q30 0 51.5 -21.5t21.5 -52.5v-317q0 -10 7 -17t17 -7t17.5 7t7.5 17v317q0 51 -36 86.5t-86 35.5h-329q-11 0 -18 -7l-480 -491q-35 -36 -34.5 -86.5t36.5 -85.5l262 -254
q36 -35 87.5 -35.5t87.5 33.5l399 372q8 7 8 17t-7 17.5t-17 7.5t-17 -6v0zM744 488q45 0 77 32t32 77.5t-32 77.5t-77.5 32t-77.5 -32t-32 -77.5t32 -77.5t78 -32v0zM744 536q-26 0 -43.5 18t-17.5 43.5t17.5 43t43 17.5t43.5 -17.5t18 -43t-18 -43.5t-43 -18v0z" />
    <glyph glyph-name="tupian" unicode="&#xe6a0;" 
d="M975 714h-926q-21 0 -35 -14t-14 -34v-732q0 -20 14 -34t35 -14h926q21 0 35 14t14 34v732q0 20 -14 34t-35 14zM926 147l-180 180q-16 17 -39.5 17t-39.5 -17l-211 -211l-91 91q-14 15 -35.5 15t-37.5 -15l-192 -192q-3 8 -3 17v536q0 21 14.5 35t34.5 14h731
q21 0 35 -14t14 -35v-421zM316.5 519q-40.5 0 -68.5 -28.5t-28 -68.5t28 -68.5t68.5 -28.5t69 28.5t28.5 68.5t-28.5 68.5t-69 28.5z" />
    <glyph glyph-name="donggandanche" unicode="&#xe676;" 
d="M212 264q-84 0 -144 -60t-60 -144t60 -144t144 -60t144 60t60 144t-60 144t-144 60v0zM212 -109q-70 0 -119.5 49.5t-49.5 119.5t49.5 119.5t119.5 49.5t119.5 -49.5t49.5 -119.5t-49.5 -119.5t-119.5 -49.5v0zM812 264q-84 0 -144 -60t-60 -144t60 -144t144 -60t144 60
t60 144t-60 144t-144 60v0zM812 -109q-70 0 -119.5 49.5t-49.5 119.5t49.5 119.5t119.5 49.5t119.5 -49.5t49.5 -119.5t-49.5 -119.5t-119.5 -49.5v0zM769 547q45 0 77.5 32t32.5 77.5t-32.5 77.5t-77.5 32t-77.5 -32t-32.5 -77.5t32.5 -77.5t77.5 -32v0zM769 732
q31 0 53 -22t22 -53t-22 -53t-53 -22t-53 22t-22 53t22 53t53 22v0zM566 323q-9 7 -29 19q-23 14 -31 21q-10 8 -11 12q2 9 23 27q14 12 50 38q11 7 12 8q10 7 19 7q18 0 28 -31q6 -19 24 -36t28.5 -23t18.5 -9l2 -1l3 -1l3.5 -0.5t9.5 -1t14.5 -1.5t19.5 -2t22.5 -2
t25.5 -2t27.5 -2t28.5 -1.5t29 -0.5h2q33 0 53 14q18 14 22 37t-8.5 45t-33.5 29q-30 9 -132 17q-25 2 -33 3q-7 2 -20 18q-12 15 -38 55q-26 41 -54 61.5t-65 27.5h-9q-44 0 -128 -56q-79 -53 -134 -115q-42 -46 -29 -96q8 -34 37 -61t56 -37q31 -12 61 -40t28 -51
q0 -9 -3 -33q-10 -74 -9 -110q1 -32 9 -51q11 -28 36 -33q6 -1 12 -1q40 0 61 51q12 26 28 103q1 4 2.5 11t2.5 10q15 70 5 119q-10 43 -36 65v0zM563 146q-1 -3 -2.5 -10t-2.5 -10q-16 -75 -26 -98q-12 -29 -29 -29q-2 0 -6 1q-14 2 -16 50q-1 33 8 104q3 26 4 35
q3 40 -39 80q-34 32 -73 46q-21 8 -43.5 29t-28.5 45q-8 33 21 65q53 58 128 108.5t109 50.5h3q30 -5 51.5 -21.5t44.5 -51.5q30 -47 47.5 -67t35.5 -22q14 -1 34 -2q98 -8 124 -17q8 -2 14.5 -13t4.5 -22q-3 -21 -41 -21h-2q-79 1 -173 13q-41 19 -50 46q-8 26 -24.5 40.5
t-36.5 14.5t-39 -14q-2 -1 -6 -3.5t-6 -4.5q-42 -30 -63 -49t-25 -37q-2 -11 2 -20.5t14.5 -19t18.5 -15t24 -15.5q18 -11 25 -17q6 -4 11 -12t11 -24.5t5.5 -46t-8.5 -66.5v0zM563 146z" />
    <glyph glyph-name="zhoubianyiyuan1" unicode="&#xe607;" 
d="M813 240.5q-5 8.5 -14 6.5l-125 -27l-61 34q53 89 53 150t-42.5 103.5t-103 42.5t-103 -42.5t-42.5 -103.5t50 -147l-28 -10q-3 -1 -5 -3l-179 -179q-7 -7 -2 -16q4 -6 12 -6q2 0 4 1l129 45l131 -72q3 -2 6 -2h1.5h0.5l2 1l131 28q4 1 7 4l176 177q7 7 2 15.5zM650 203
l-158 -158l-112 62l87 87q22 -30 44 -53q4 -4 9 -4h1q5 0 9 4q38 42 69 91zM520.5 524q49.5 0 84.5 -35t35 -85q0 -59 -57 -148v-1v0q-28 -45 -63 -85q-49 54 -84 120t-35 114q0 50 35 85t84.5 35zM408 223l31 11q6 -9 12 -19l-100 -100l-79 -27zM619 69l-84 -18l143 143
l83 18zM601 404.5q0 33.5 -23.5 57.5t-57 24t-57 -24t-23.5 -57.5t23.5 -57t57 -23.5t57 23.5t23.5 57zM466 405q0 22 16 38t38.5 16t38.5 -16t16 -38.5t-16 -38.5t-38.5 -16t-38.5 16t-16 39v0z" />
    <glyph glyph-name="dui" unicode="&#xe686;" 
d="M870 664q-148 148 -358 148q-207 0 -364 -148q-148 -157 -148 -364t148 -364q149 -148 364 -148q207 0 364 148q148 149 148 364q0 210 -154 364zM466 228l251 256l56 -56l-307 -307l-164 164l51 51z" />
    <glyph glyph-name="sale" unicode="&#xe606;" horiz-adv-x="1042" 
d="M935 491h-76l-245 174q3 11 3 19q0 40 -29 69t-69.5 29t-69 -29t-28.5 -69q0 -9 3 -21l-241 -172h-77q-44 0 -75 -31t-31 -75v-444q0 -44 31 -75.5t75 -31.5h829q44 0 75 31.5t31 75.5v444q0 44 -31 75t-75 31zM519 720q15 0 25.5 -10.5t10.5 -25.5t-10.5 -26t-25.5 -11
t-26 11t-11 26t11 25.5t26 10.5zM455 609q28 -23 64 -23q37 0 65 25l168 -120h-463zM979 -59q0 -19 -13 -32t-31 -13h-829q-18 0 -31 13t-13 32v444q0 19 13 32t31 13h829q18 0 31 -13t13 -32v-444zM330 169q-10 15 -30 24q-13 6 -47 14q-31 7 -37 13q-5 4 -5 11q0 9 8 16
q9 7 30 7t31 -8q9 -8 11 -24l1 -8l42 3v8q-1 20 -12 37q-11 16 -30 25q-19 8 -44 8q-22 0 -40 -8q-20 -8 -30 -24q-10 -15 -10 -33q0 -16 8 -30q9 -14 25 -22q13 -7 42 -14q26 -6 35 -9q11 -5 15 -10t4 -12t-4 -13q-4 -5 -14 -9q-11 -4 -24 -4q-16 0 -28 5t-17.5 13t-6.5 22
l-1 8l-42 -4v-7q1 -23 13 -41.5t33 -27.5t50 -9q24 0 43 9q20 9 30.5 25t10.5 36q0 18 -10 33zM594 291h-44v-220l-90 220h-41l-85 -222h47l22 63h75l23 -63h194v41h-101v181zM417 170l19 49q2 7 4 13q2 -8 5 -16l18 -46h-46zM881 110h-126v53h113v41h-113v47h121v40h-165
v-221h170v32v8z" />
    <glyph glyph-name="dianhua" unicode="&#xe6a6;" 
d="M951 18q-16 -34 -52 -66q-85 -76 -159 -67q-71 8 -196.5 76t-223.5 159t-171.5 207t-82.5 182q-6 38 17.5 79.5t65.5 75.5q2 1 6 4q39 32 69 43q24 10 46 1l13 -6q30 -13 63 -56q22 -30 39 -57q9 -15 17.5 -31t12.5 -24l4 -9l2 -7q9 -22 -9 -39l-2 -3q-1 0 -4 -3t-4 -3
q-10 -6 -17.5 -10t-13.5 -8q-10 -6 -29.5 -13.5t-32.5 -13.5q-19 -9 -25 -31.5t1 -33.5q33 -71 127 -158q65 -61 161 -114q28 -12 50.5 -2.5t33.5 30.5q6 10 14.5 26.5t11.5 21.5q20 35 23 34q7 12 22 17q18 7 33 -1l21 -10l45 -28q34 -22 74 -54q13 -11 22.5 -19.5
t13.5 -12.5l3 -3l10 -12l3 -5q7 -14 5.5 -28.5t-7.5 -27.5z" />
    <glyph glyph-name="carcare" unicode="&#xe632;" 
d="M627 485l108 108l23 -23l-108 -109zM637 648l108 109l24 -24l-109 -108zM747 599q7 0 12 -5t5 -12t-5 -12t-12 -5t-12 5t-5 12t5 12t12 5zM574 585l101 102l24 -24l-102 -101zM583.5 588q7.5 0 12 -5t4.5 -12t-4.5 -12t-12 -5t-12.5 5t-5 12t5 12t12.5 5zM984 438
q-1 3 -1 5q-3 20 -18.5 33t-35.5 13v0h-43l-9 121v0l-4 61v3q0 37 -26 63t-63 26h-4h-531q-4 1 -9 1q-37 0 -63 -26.5t-26 -63.5v-6l-4 -58v0l-9 -121h-38h-4h-5v0v0q-22 -2 -36.5 -17.5t-14.5 -37.5q0 -5 2 -8q3 -19 17 -31.5t33 -14.5v0h25l-18 -101q-5 -13 -5 -39
q0 -36 18.5 -67.5t48.5 -48.5v-62v-1q0 -23 16.5 -39t39.5 -16h2h16h3q23 0 39 16t16 39v1v0v43h438v-42v-2q0 -22 15.5 -38.5t38.5 -16.5v0h1v0h1h20v0v0h2v0q21 0 36 14.5t17 35.5v0v1v3.5v3.5v59q31 18 49.5 49.5t18.5 67.5q0 25 -5 39l-18 102h25v0q18 1 32 13.5
t18 29.5q2 4 2 10v4zM175 547v0l10 139q4 18 17.5 30t31.5 14h551q20 0 35 -13t19 -32l10 -138v0l4 -58h-682zM156 410l31 46h648l34 -49l13 -71h-739zM359 237q-10 0 -16 6.5t-6 15.5q0 1 -1 2v41h351v-43v0q0 -9 -6 -15.5t-15 -6.5h-307zM93 413q-8 2 -13 8t-5 14
q0 1 -1 1q2 16 17 20h56l-29 -43h-25zM260 61q0 -9 -6.5 -15.5t-15.5 -6.5h-1h-20h-1q-9 0 -15.5 6.5t-6.5 15.5v0v49q18 -5 36 -5h5h25v-43v0v-1v0zM830 63v-2q0 -8 -5.5 -14.5t-14.5 -7.5h-24v0q-9 0 -15 6.5t-7 14.5v45h25h6q18 0 35 5v-47v0zM796 138v0h-568
q-41 1 -69.5 29.5t-30.5 69.5h123q2 -1 4 -1q7 0 12 5t5 12t-5 12t-12 5h-3h-121l6 32h167v-40v-4q0 -23 16 -39t39 -16h2h300h4q23 0 39 16t16 39v4v40h168l5 -32h-121h-3q-7 0 -12 -5t-5 -12t5 -12t12 -5q2 0 4 1h123q-1 -41 -30 -69.5t-70 -29.5zM950 436q0 -8 -5.5 -14
t-12.5 -8h-28l-29 42h54v0q8 0 14 -6t7 -14v0z" />
    <glyph glyph-name="gongkai" unicode="&#xe608;" 
d="M924 559q-34 80 -96 142t-142 96q-83 35 -174 35t-175 -35q-80 -34 -142 -96t-96 -142q-35 -84 -35 -175t35 -174q34 -80 96 -142t142 -96q84 -35 175 -35t174 35q80 34 142 96t96 142q35 83 35 174t-35 175zM512 -25q-25 0 -50 3v93q-42 0 -73.5 32t-31.5 73v52
l-245 245q30 139 142 230t258 91q82 0 158 -32v-13q0 -42 -32 -72.5t-74 -30.5h-102v-105q0 -22 -16 -37t-38 -15h-103v-105h313q22 0 37 -14.5t15 -36.5v-157h51q69 0 97 -64q-58 -64 -137.5 -100.5t-168.5 -36.5z" />
    <glyph glyph-name="feiji" unicode="&#xe652;" 
d="M446 -23l113 155l-113 32v-187v0v0zM47 340l321 -97l395 336l-306 -362l343 -106l177 680l-930 -451v0v0zM47 340z" />
    <glyph glyph-name="xiangji1" unicode="&#xe6b9;" 
d="M863 671h-146v24q0 29 -21 50t-51 21h-291q-30 0 -51 -21t-21 -50v-24h-121q-40 0 -68.5 -28t-28.5 -68v-479q0 -39 28.5 -67.5t68.5 -28.5h702q40 0 68 28.5t28 67.5v479q0 40 -28 68t-68 28zM175 613h69h1h93v45q0 19 13.5 32.5t32.5 13.5h233q19 0 32.5 -13.5
t13.5 -32.5v-45h70v0h116q19 0 33 -13.5t14 -32.5v0v-151h-168q-11 58 -51.5 102t-97.5 62q-33 10 -67 10q-48 0 -90 -19q-49 -21 -82.5 -62.5t-43.5 -92.5h-168v151q0 19 14 32.5t33 13.5zM665 373q0 -64 -45 -109t-108.5 -45t-108.5 45t-45 109t45 109t108.5 45t108.5 -45
t45 -109zM849 65h-675q-19 0 -32.5 13t-13.5 32v250v0v-8h164q7 -78 63.5 -133.5t136.5 -62.5q10 -1 20 -1q9 0 19 1q80 7 137 62.5t64 133.5h164v-242q0 -19 -14 -32t-33 -13z" />
    <glyph glyph-name="dui1" unicode="&#xe60c;" 
d="M938.5 686q-18.5 19 -45 19t-45.5 -19l-431 -431l-244 243q-18 19 -44.5 19t-45.5 -19t-19 -45.5t19 -45.5l269 -268q33 -34 64.5 -34t63.5 32l458 459q19 18 19 44.5t-18.5 45.5z" />
    <glyph glyph-name="aite" unicode="&#xe643;" 
d="M855 231q-45 -47 -87 -69t-92 -22q-24 0 -42.5 5.5t-27.5 13.5t-15 16t-8 14l-1 6q-34 -30 -61 -41q-40 -17 -85 -14t-80 24q-40 24 -65 73.5t-25 108.5q0 73 38.5 146t96.5 110q56 36 111 36q43 0 79 -20q38 -21 65 -63v0v0v0q10 4 21 4q22 0 37.5 -15t15.5 -36
q0 -5 -2 -12h1l-40 -178q-14 -64 -14 -71q0 -44 88 17q40 28 72 90q28 56 28 115q0 68 -37 128q-41 68 -114.5 104t-171.5 36q-112 0 -195 -45q-90 -50 -137 -136q-48 -89 -48 -192q0 -108 48 -186q50 -79 136 -112.5t208 -33.5t200 36q39 18 77 53v0q13 10 29 10
q20 0 33.5 -13.5t13.5 -32.5q0 -20 -15 -34v0v0q-59 -50 -140.5 -79t-195.5 -29q-106 0 -195 26t-152 78.5t-95 121.5q-40 86 -40 187q0 111 48 213q58 124 164.5 190t259.5 66q119 0 213 -46.5t148 -138.5q47 -80 47 -173q0 -132 -97 -236zM584 522q-28 28 -69 28
q-30 0 -51 -11q-28 -15 -50 -43q-32 -40 -43 -72q-14 -43 -14 -78q0 -57 29 -88.5t66 -31.5q25 0 52 14q38 19 58 41q28 30 43 69q16 42 16 85q0 48 -37 87z" />
    <glyph glyph-name="car" unicode="&#xe6ac;" 
d="M1024 341v0v-145q0 -48 -70 -48h-47q-8 -51 -47 -90.5t-89 -39.5q-49 0 -88 41t-47 92h-248q-8 -51 -47 -92t-88 -41q-50 0 -89 39.5t-47 90.5h-47q-70 0 -70 48v145v0v9v9q0 73 52 125t125 53q36 94 135.5 153.5t226.5 59.5q129 0 230.5 -62.5t134.5 -160.5
q53 -18 86.5 -64t33.5 -104v-9v-9v0zM697 128q4 -11 12 -21v-1l4 -4v-0.5v-0.5q3 -2 4 -4h0.5h0.5q3 -4 7 -7q1 0 1.5 -0.5l0.5 -0.5q1 -1 3 -2t3 -2q2 -1 3.5 -1.5t3.5 -1.5l1 -0.5t2 -1.5q3 -1 7 -2l0.5 -0.5t1.5 -0.5q2 -1 5 -1q1 0 2 -1h6q1 -1 2 -1h7.5h7.5q1 0 3 1h5
q2 1 3 1q2 0 5 1l0.5 0.5t1.5 0.5l6 2l3 2q2 1 3.5 1.5t3.5 1.5q1 1 3 2t3 2q1 0 1.5 0.5l0.5 0.5q4 3 8 7v0v0l4 4l1 1q2 2 3 4v1q8 9 12 21q6 15 6 30q0 45 -47 68q-4 2 -8 3h-1q-3 1 -5 2t-4 1t-3 1q-3 0 -6 1h-2h-7.5h-7.5h-1q-3 -1 -7 -1q-1 -1 -2 -1q-3 0 -5 -1t-5 -2
h-1q-4 -1 -7 -3q-47 -23 -47 -68q0 -15 5 -30v0zM175 125q4 -11 12 -21v-1q1 -2 3 -4q1 0 1 -1l4 -4v0v0q4 -4 8 -7l0.5 -0.5t1.5 -0.5q1 -1 3 -2q1 -1 3 -2l3 -1.5t3.5 -2t3.5 -1.5l6 -2q1 0 1.5 -0.5l0.5 -0.5q3 -1 5 -1q1 0 3 -1h5q2 -1 3 -1h7.5h7.5l1 0.5l1 0.5h6
q1 1 2 1q3 0 5 1q1 0 1.5 0.5t1.5 0.5l6 2l2.5 1.5t4 2t3.5 1.5q1 1 3 2t3 2l0.5 0.5t1.5 0.5q4 3 7 7h0.5h0.5q1 2 4 4v1l4 4v1q8 10 12 21q5 15 5 30q0 45 -47 68q-3 2 -7 3h-1v0q-3 1 -5 2t-5 1q-1 0 -2 1q-4 0 -7 1h-1v0h-7.5h-7.5h-2q-3 -1 -6 -1q-1 -1 -3 -1t-4.5 -1
t-4.5 -2h-0.5h-0.5q-4 -1 -8 -3q-47 -23 -47 -68q0 -15 6 -30v0zM231 537h277v162q-95 -7 -169.5 -51t-107.5 -111v0zM546 700v-163h300v0q-35 71 -116.5 116t-183.5 47v0zM831 486l-629 3q-62 0 -105.5 -39.5t-45.5 -99.5v0v-126q0 -7 5.5 -12.5t12.5 -5.5h62
q18 35 51 57.5t70.5 22.5t70.5 -22.5t51 -57.5h276q18 35 51 57.5t70 22.5q39 0 71.5 -19.5t50.5 -53.5h62q7 0 12.5 5.5t5.5 12.5v116v0q-2 61 -41.5 100t-100.5 39v0zM831 486z" />
    <glyph glyph-name="jingqu" unicode="&#xe61e;" 
d="M762 698q-8 15 -4 23.5t14 11.5l9 3v32h-538v-32q2 0 4.5 -1t8 -3.5t8.5 -6.5t3.5 -11t-5.5 -16q-9 -17 -30 -40t-54.5 -52t-81 -48.5t-96.5 -19.5q2 -4 6 -10t19 -22.5t34 -29.5t53 -25t74 -16v-269h134v263h38v-263h77v263h141v-263h77v263h51v-263h141v276
q37 1 69.5 12t51.5 24.5t33 27.5t19.5 22.5t5.5 9.5q-40 0 -80 14.5t-67.5 33t-55 45t-38.5 40t-21 27.5zM141 51h736v103h-736v-103z" />
    <glyph glyph-name="ticket" unicode="&#xe646;" horiz-adv-x="1127" 
d="M116 130v-177h895v177l42 7q71 20 32 63q-16 18 -59 34.5t-78 23.5l-35 7q20 42 54 61q20 11 30 21t9 27.5t-19 39.5q-17 20 -68 30t-92.5 18.5t-41.5 26.5t14 30.5t36.5 24.5t33.5 24q10 11 14 20.5t2 17.5t-6.5 14.5t-14.5 12.5t-20 10t-25.5 9t-27 8t-28.5 7.5
t-27 7.5q-64 20 -120 94v1v0q0 21 -18 32v43q10 9 10 21q0 13 -9.5 21.5t-22 8.5t-22 -8.5t-9.5 -21.5q0 -12 10 -21v-44q-18 -10 -18 -31v-0.5v-0.5q-73 -80 -136 -98q-13 -4 -35.5 -9.5t-38 -9.5t-34.5 -10t-29 -13t-17 -15.5t-4 -20t15 -25.5q11 -12 33.5 -24t36.5 -24.5
t14 -30.5t-41.5 -26.5t-93 -18.5t-67.5 -30q-18 -22 -19 -39.5t9 -27.5t30 -21q15 -8 28.5 -23.5t19.5 -26.5l6 -11q-15 -3 -39 -8t-70.5 -22t-62.5 -35q-11 -12 -13 -22.5t3.5 -17.5t15.5 -12.5t21.5 -9t22 -5.5t17 -2.5t7.5 -0.5v0zM669 321q-51 3 -106 3q-37 0 -75 -2v68
q38 3 75 3q52 0 106 -6v-66v0zM898 316v-38q-53 29 -199 40v66q147 -20 199 -68v0zM645 581q88 -16 119 -55v-31q-31 24 -119 33v53v0zM517 586q24 2 46 2q32 0 63 -4v-54q-30 2 -63 2q-24 0 -46 -1v55v0v0zM365 530q37 41 134 54v-54q-97 -8 -134 -32v32v0zM233 320
q63 51 224 68v-67q-161 -10 -224 -40v39v0zM0 -47v-81h1127v81h-1127z" />
    <glyph glyph-name="geren" unicode="&#xe6ba;" horiz-adv-x="1025" 
d="M693 730q7 -27 8 -37.5t1 -36.5q0 -1 -4 -43t-2 -54q0 -7 1.5 -11t5 -10t5.5 -9q12 -27 3 -79q-5 -28 -15 -41q-4 -5 -16 -11.5t-16 -13.5q-6 -11 -7 -34.5t-4 -32.5t-15 -24t-13 -32q5 -1 14 -2t14 -2q29 -62 44 -72q2 -1 19 -5.5t25 -6.5q30 -12 87.5 -37t73.5 -31
q10 -5 35 -13.5t37.5 -14t27 -18.5t20.5 -31q0 -10 1.5 -70.5t0.5 -85.5h-1024q0 25 1 85.5t1 70.5q6 18 21 31t27.5 18.5t37.5 14t35 13.5q16 7 73.5 31.5t86.5 36.5q1 0 44 12q15 10 44 72l21 5q-2 15 -13.5 27.5t-14.5 19.5q-1 13 -3.5 41.5t-4.5 42.5l-4.5 1t-10 2.5
t-6.5 1.5q-8 5 -13.5 15t-8.5 26t-4.5 25.5t-3 28.5t-1.5 20q0 5 7.5 20t4.5 29q-21 100 2.5 155.5t78.5 73.5q26 11 43.5 16.5t49.5 11.5t63 0t60 -24l20 -19l33 -5q16 -10 27 -41z" />
    <glyph glyph-name="userlist" unicode="&#xe663;" 
d="M536 355q43 31 68 78t25 102q0 91 -65 156.5t-157 65.5t-157 -65t-65 -157q0 -55 25 -102t68 -78q-92 -38 -149 -122t-57 -188q0 -14 9.5 -24t24 -10t24.5 10t10 24q0 111 78.5 189.5t189 78.5t189 -78.5t78.5 -189.5q0 -14 10 -24t24 -10t24 10t10 24q0 103 -57 187.5
t-150 122.5zM254 534.5q0 63.5 45 108.5t108.5 45t108.5 -45t45 -108.5t-45 -108.5t-108.5 -45t-108.5 45t-45 108.5zM724 438h197q13 0 21.5 9t8.5 21.5t-8.5 21.5t-21.5 9h-197q-12 0 -21 -9t-9 -21.5t9 -21.5t21 -9zM921 374h-155q-12 0 -21 -8.5t-9 -21.5t9 -22t21 -9
h155q13 0 21.5 9t8.5 22t-9 21.5t-21 8.5zM921 250h-113q-13 0 -22 -9t-9 -21.5t9 -21.5t22 -9h113q12 0 21 9t9 21.5t-9 21.5t-21 9z" />
    <glyph glyph-name="wodepintuan" unicode="&#xe615;" 
d="M959 731v-687q0 -27 -7.5 -48.5t-26.5 -39t-89 -17.5h-662q-57 0 -75.5 16t-26 36t-7.5 44v704q0 49 24.5 70t76.5 21h686q60 0 76 -14.5t23.5 -35.5t7.5 -49zM837 773l-654 1q-43 0 -50.5 -19t-7.5 -34v-668q0 -15 4.5 -26.5t15 -21t45.5 -9.5h630q47 0 61.5 16.5
t14.5 52.5v648q0 20 -6 36.5t-20.5 20t-32.5 3.5zM691 552v-428q0 -89 -94 -102q-41 -6 -112.5 6t-85 24.5t-12.5 30.5q1 23 26 26q8 0 17 -2q9 -3 56 -18t85 -9q25 4 41.5 20t16.5 45v322q-64 -76 -131.5 -142t-171.5 -136t-126 -69q-11 0 -20.5 6t-10.5 18t13 26
q9 8 27 19l44 25q24 14 91.5 61t137.5 119t138 159l-419 -1q-13 0 -22.5 7t-8.5 23q1 26 32 26h427v126q0 10 10.5 17.5t23.5 7.5t20.5 -7.5t7.5 -17.5v-126h151q10 0 18.5 -7t8.5 -20q0 -14 -9.5 -21.5t-17.5 -7.5h-151z" />
    <glyph glyph-name="log" unicode="&#xe66d;" 
d="M715 -52h-655v774h59q12 0 21 8.5t9 21t-9 21t-21 8.5h-89q-13 0 -21.5 -8.5t-8.5 -20.5v-834q0 -13 8.5 -21.5t21.5 -8.5h685q12 0 21 8.5t9 21t-9 21.5t-21 9zM318 720h385q14 0 23 9t9 22.5t-9 23t-23 9.5h-385q-13 0 -22.5 -9.5t-9.5 -23t9.5 -22.5t22.5 -9zM992 784
h-96q-14 0 -23 -9.5t-9 -23t9 -22.5t23 -9h64v-578q0 -13 9.5 -22.5t22.5 -9.5t22.5 9.5t9.5 22.5v610q0 13 -9.5 22.5t-22.5 9.5zM222 623q13 0 22.5 9.5t9.5 22.5v193q0 13 -9.5 22.5t-22.5 9.5t-22.5 -9.5t-9.5 -22.5v-193q0 -13 9.5 -22.5t22.5 -9.5zM799.5 623
q13.5 0 23 9.5t9.5 22.5v193q0 13 -9.5 22.5t-23 9.5t-23 -9.5t-9.5 -22.5v-193q0 -13 9.5 -22.5t23 -9.5zM469 486q-9 9 -22.5 9t-22.5 -9.5t-9 -22.5t9 -23l513 -513q10 -9 23 -9t22.5 9.5t9.5 22.5t-9 23z" />
    <glyph glyph-name="useshizhong01" unicode="&#xe618;" 
d="M512 -91q-94 0 -179 36.5t-147 98.5t-98.5 147t-36.5 179t36.5 179t98.5 147t147 98.5t179 36.5t179 -36.5t147 -98.5t98.5 -147t36.5 -179t-36.5 -179t-98.5 -147t-147 -98.5t-179 -36.5zM512 795q-115 0 -213 -57t-155 -155t-57 -213t57 -213t155 -155t213 -57t213 57
t155 155t57 213t-57 213t-155 155t-213 57zM386 248q-10 0 -15 7q-12 17 -1 26l115 89v235q0 7 5.5 12.5t13 5.5t12.5 -5.5t5 -12.5v-244q0 -12 -2 -14l-125 -95q-5 -4 -8 -4z" />
    <glyph glyph-name="huoche-copy" unicode="&#xe600;" 
d="M826 179v427q0 48 -34.5 82.5t-83.5 34.5h-390q-48 0 -82.5 -34.5t-34.5 -82.5v-427q0 -43 29 -77t72 -40l-104 -128h112l112 125h195l103 -125h106l-95 128q40 9 67.5 41.5t27.5 75.5v0zM324 126q-22 0 -37.5 15t-15.5 38q0 21 15 37t38 16q21 0 37 -15.5t16 -37.5
q0 -21 -15.5 -37t-37.5 -16v0zM697 126q-21 0 -37 15.5t-16 37.5t15.5 37.5t37.5 15.5t37.5 -15t15.5 -38q0 -21 -15 -37t-38 -16v0zM775 408q0 -25 -16.5 -42t-41.5 -17h-404q-25 0 -42 17t-17 42v128q0 25 17 41.5t42 16.5h401q25 0 41.5 -16.5t16.5 -41.5v-128h3z
M775 408zM444 750h142q17 0 29.5 12.5t12.5 29.5t-12.5 29.5t-29.5 12.5h-142q-17 0 -29.5 -12.5t-12.5 -29.5t12.5 -29.5t29.5 -12.5v0zM444 750z" />
    <glyph glyph-name="jiesongji" unicode="&#xe637;" 
d="M845 21q-25 0 -25 27l1 26h-165l-1 -6q0 -18 -16.5 -31t-34.5 -13q-20 0 -34 13.5t-14 32.5v3h-9q-9 1 -14 1.5t-12.5 4t-11 12t-3.5 21.5v127q0 29 14.5 57.5t38.5 34.5l36 83q14 30 37.5 48t49.5 18h114q28 0 54.5 -19.5t38.5 -48.5l32 -83q22 -9 36.5 -34.5
t14.5 -51.5v-131q0 -22 -12 -31q-10 -8 -28 -8v0q-5 0 -14 1h-1v-2q0 -20 -15.5 -34.5t-35.5 -14.5q-3 0 -11 -1q-7 -1 -10 -1zM632 101h217l-2 -53q1 0 5 1q9 1 14 1q9 0 16 6.5t7 14.5v30h14h17q9 -1 12 -1v0q9 0 11 1.5t2 10.5v131q0 20 -12 39.5t-26 22.5l-7 2l-36 95
q-9 21 -29 36t-39 15h-114q-18 0 -35 -14t-27 -36l-42 -97h-9q-13 -1 -24 -23t-11 -44v-127q0 -9 1 -11q1 0 13 -1q14 0 23 -1l9 -1l2 -9q2 -5 2 -19q0 -8 6 -13.5t14 -5.5t15.5 5.5t7.5 13.5zM866 175q-23 0 -39 16.5t-16 40.5t16 40.5t39 16.5t39 -16.5t16 -40.5
t-16 -40.5t-39 -16.5zM866 262q-11 0 -19 -8.5t-8 -21t8 -21.5t19 -9t19.5 9t8.5 21.5t-8.5 21t-19.5 8.5zM612 175q-23 0 -39 16.5t-16 40.5t16 40.5t39 16.5t39 -16.5t16 -40.5t-16 -40.5t-39 -16.5zM612 262q-11 0 -19.5 -8.5t-8.5 -21t8.5 -21.5t19.5 -9t19 9t8 21.5
t-8 21t-19 8.5zM875 310h-265v13q0 41 21.5 75.5t68.5 43.5h75h2q31 -5 53 -20t30.5 -36t11.5 -35t3 -28v-13zM638 337h209q-8 68 -74 78h-71q-57 -11 -64 -78zM923 752v0q-19 -21 -48 -32l-495 -302q-27 -17 -63.5 -14t-61.5 24l-159 131q-18 15 -19 35q-1 24 23 39l5 3
q35 22 116 -11l3 -1q22 -9 101 -58q20 12 118 72l-107 102q-16 16 -18.5 36t9.5 32l30 22q11 12 38 11t43 -14l155 -98l130 79q60 36 123.5 42t87.5 -28q22 -36 -11 -70zM109 606q-5 -5 -5 -11q1 -8 10 -15l158 -131q19 -15 46.5 -17.5t47.5 9.5l497 303q30 15 41 27v0
q18 18 7 37q-8 13 -35.5 15.5t-65.5 -7.5t-73 -31l-145 -88l-169 108q-11 8 -28.5 8.5t-20.5 -3.5l-29 -22q-3 -2 -0.5 -11.5t10.5 -16.5l132 -127l-15 -9q-132 -81 -139 -85l-7 -8l-8 7q-82 51 -105 61l-3 1q-68 27 -91 13l-5 -3q-3 -2 -5 -4z" />
    <glyph glyph-name="meishiyule" unicode="&#xe644;" 
d="M209 826v-279l117 -116q-12 -133 -12 -256.5t12 -302.5v0h46q12 180 12 303q0 54 -3 118t-6 101l-3 37l117 116v279l-47 70v-326l-70 -67v393h-46v-393l-70 67v326zM815 551q0 19 -3.5 54t-13 87t-24 96t-40.5 76t-59 32t-59 -32t-40.5 -76t-24 -96t-13 -87t-3.5 -54
q0 -26 12 -48t29 -35t34.5 -22.5t29.5 -12.5l12 -4q-12 -139 -12 -255t12 -302h46q12 181 12 302q0 54 -3 117.5t-6 100.5l-3 37q5 1 13 3.5t28 12.5t35 22.5t28 35t13 48.5z" />
    <glyph glyph-name="checi" unicode="&#xe602;" 
d="M512 -128q-101 0 -193 39.5t-158.5 106t-106 158.5t-39.5 193t39.5 193t106 158.5t158.5 105.5t193 39t193 -39t158.5 -105.5t106 -158.5t39.5 -193t-39.5 -193t-106 -158.5t-158.5 -106t-193 -39.5zM512 755q-105 0 -194 -51.5t-141 -141t-52 -194t52 -193.5t141 -141
t194 -52t194 52t141 141t52 193.5t-52 194t-141 141t-194 51.5zM324 213zM273 213q0 21 15 36t36 15t35.5 -15t14.5 -36t-14.5 -36t-35.5 -15t-36 15t-15 36zM703 213zM652 213q0 21 15 36t36 15t36 -15t15 -36t-15 -36t-36 -15t-36 15t-15 36zM640 562h-425v-349h38
q0 29 20.5 49.5t50 20.5t50 -20.5t20.5 -49.5h236q0 29 20.5 49.5t49.5 20.5t49.5 -20.5t20.5 -49.5h39v174q0 36 -9.5 65t-24 46.5t-32.5 30.5t-36 19t-33 9.5t-25 3.5zM424 393h-121v124h121v-124zM575 393h-121v124h121v-124zM728 393h-121v124h29h10t21 -3t27 -8
t22.5 -15.5t11.5 -25.5v-72z" />
    <glyph glyph-name="gerenzhongxinxiazai5555" unicode="&#xe605;" 
d="M579 142q0 29 10.5 53.5t35 48.5t49 42t70.5 47l55.5 37t54 40t54 48t45 55t39 67.5t23 78.5t9.5 95q0 16 -12 27.5t-28 11.5h-195q-24 43 -93 73t-184 30t-184 -30t-93 -73h-195q-16 0 -28 -11.5t-12 -27.5q0 -50 9.5 -95t23 -78.5t39 -67.5t45 -55t54 -48t54 -40
l55.5 -37q46 -29 70.5 -47t49 -42t35 -48.5t10.5 -53.5v-73q-81 -9 -133.5 -36t-52.5 -61q0 -41 74 -70.5t179 -29.5t179 29.5t74 70.5q0 34 -52.5 61t-133.5 36v73v0zM737 423q57 117 62 292h143q-5 -54 -23 -98.5t-49 -80t-60.5 -60t-72.5 -53.5v0zM512 828q44 0 82 -7
t61.5 -16.5t41 -21.5t24.5 -22.5t7 -18t-7 -17.5t-24.5 -22t-41 -22t-61.5 -17t-82 -7t-82 7t-61.5 17t-41 22t-24.5 22t-7 17.5t7 18t24.5 22.5t41 21.5t61.5 16.5t82 7v0zM82 715h143q5 -175 62 -292q-43 29 -72.5 53.5t-60.5 60t-49 80t-23 98.5v0z" />
    <glyph glyph-name="xiuxianyule" unicode="&#xe61a;" 
d="M913 695h-696l-132 119q-9 8 -21 8.5t-19 -7.5t-5.5 -19.5t10.5 -20.5l89 -80h-40v-67l367 -359v-240h-147q-15 0 -26 -11t-11 -26.5t11 -26.5t26 -11h373q16 0 27 11t11 26.5t-11 26.5t-27 11h-138v240h-2l361 369v57v0zM507 305l-360 347h39l116 -104q4 -4 10 -7
l193 -180l273 258h-477l-37 33h596z" />
    <glyph glyph-name="hotel" unicode="&#xe609;" horiz-adv-x="1248" 
d="M751 896l497 -159v-854h-497v932l-182 -94v-145h-72v186l18 11zM276 547v-664h364v626l-364 117l-178 -82l-18 -11v-220l-71 -79l-9 -11v-351h72v324l70 79l10 10v207l124 55v0zM335 526q11 -3 31 -8.5t29 -7.5v-87q-22 4 -60 12v91zM546 232v-77h44v74l-44 3v0zM449 238
v-83h51v80q-33 2 -51 3zM335 246l60 -4v-87h-60v91zM546 351v-77q25 -3 44 -5v75zM449 367v-84q39 -4 51 -5v81q-5 0 -51 8zM335 386q15 -3 60 -10v-88q-1 1 -24 3t-36 3v92zM546 470v-77l44 -9v75q-7 2 -22 5.5t-22 5.5zM449 496v-84q47 -9 51 -10v80q-4 1 -22.5 6t-28.5 8
zM833 759v-124q14 -3 41 -8.5t41 -7.5v119zM1120 359v-106h60v102q-44 3 -60 4zM987 367v-114h70v110q-7 0 -70 4zM833 377v-124h82v119q-49 3 -82 5zM1120 521v-106l60 -5v101q-31 5 -60 10zM987 543v-114l70 -7v109q-1 1 -70 12zM833 568v-124q14 -1 41 -4t41 -4v119
q-13 2 -40.5 6.5t-41.5 6.5zM1120 684v-106q19 -4 60 -12v102q-11 3 -31 8t-29 8zM987 719v-115q9 -1 33 -6t37 -7v109q-12 3 -35.5 9.5t-34.5 9.5z" />
    <glyph glyph-name="huihua" unicode="&#xe672;" 
d="M512 829q-91 0 -173.5 -35t-142 -94.5t-94.5 -142t-35 -173.5q0 -131 70 -240l-50 -186l187 50q108 -69 238 -69q91 0 173.5 35t142 94.5t94.5 142t35 173.5t-35 173.5t-94.5 142t-142 94.5t-173.5 35zM512 -21q-118 0 -217 63l-15 9l-17 -4l-119 -32l32 118l5 18l-10 15
q-64 99 -64 218q0 110 54.5 203t147.5 147.5t203 54.5t203 -54.5t147.5 -147.5t54.5 -203t-54.5 -203t-147.5 -147.5t-203 -54.5zM755 465q-34 0 -57.5 -23.5t-23.5 -57.5t23.5 -57.5t57.5 -23.5t57.5 23.5t23.5 57.5t-23.5 57.5t-57.5 23.5zM755 343q-17 0 -29 12t-12 29
t12 28.5t29 11.5t28.5 -11.5t11.5 -28.5t-11.5 -29t-28.5 -12zM512 465q-34 0 -57.5 -23.5t-23.5 -57.5t23.5 -57.5t57.5 -23.5t57.5 23.5t23.5 57.5t-23.5 57.5t-57.5 23.5zM512 343q-17 0 -28.5 12t-11.5 29t11.5 28.5t28.5 11.5t29 -11.5t12 -28.5t-12 -29t-29 -12z
M269 465q-34 0 -57.5 -23.5t-23.5 -57.5t23.5 -57.5t57.5 -23.5t57.5 23.5t23.5 57.5t-23.5 57.5t-57.5 23.5zM269 343q-17 0 -28.5 12t-11.5 29t11.5 28.5t28.5 11.5t29 -11.5t12 -28.5t-12 -29t-29 -12z" />
    <glyph glyph-name="xiaolian" unicode="&#xe670;" 
d="M512 896q-104 0 -199 -40.5t-163.5 -109t-109 -163.5t-40.5 -199t40.5 -199t109 -163.5t163.5 -109t199 -40.5t199 40.5t163.5 109t109 163.5t40.5 199t-40.5 199t-109 163.5t-163.5 109t-199 40.5zM512 -14q-108 0 -200 53.5t-145 145t-53 199.5t53 200t145 145t200 53
t199.5 -53t145 -145t53.5 -200t-53.5 -199.5t-145 -145t-199.5 -53.5zM746 371q-8 2 -17 2q-17 0 -33 -11.5t-21 -28.5q-15 -49 -62.5 -84.5t-99.5 -35.5h-1q-52 1 -100 36t-63 85q-6 16 -21.5 27.5t-32.5 11.5q-24 0 -40.5 -16.5t-16.5 -40.5q0 -7 2 -15q25 -83 104.5 -142
t166.5 -59h0.5h1.5q87 0 166 58.5t105 140.5q2 9 2 17q0 18 -11.5 34t-28.5 21zM317 525zM231 525q0 -35 25 -60t60.5 -25t60.5 25t25 60t-25 60t-60.5 25t-60.5 -25t-25 -60zM707 525zM622 525q0 -35 25 -60t60.5 -25t60.5 25t25 60t-25 60t-60.5 25t-60.5 -25t-25 -60z
" />
    <glyph glyph-name="jiudian" unicode="&#xe64c;" 
d="M911 132h-48v378q0 22 -11.5 39t-31.5 17h-117q-14 0 -27.5 -13t-13.5 -27v-394h-33v579q0 22 -11.5 39t-31.5 17h-367q-21 0 -40 -18t-19 -38v-579h-48q-2 0 -2 -2v-129q0 -2 2 -2h799q2 0 2 2v129q0 2 -2 2zM359 333q0 -14 -9.5 -24t-23.5 -10h-66q-14 0 -24 10t-10 24
v66q0 14 10 24t24 10h66q14 0 24 -10t10 -24v-66h-1zM359 535q0 -14 -9.5 -24t-23.5 -10h-66q-14 0 -24 10t-10 24v66q0 13 10 23t24 10h66q14 0 24 -9.5t10 -23.5v-66h-1zM560 333q0 -14 -9.5 -24t-23.5 -10h-66q-14 0 -24 10t-10 24v66q0 14 10 24t24 10h66q14 0 23.5 -10
t9.5 -24v-66zM560 535q0 -14 -9.5 -24t-23.5 -10h-66q-14 0 -24 10t-10 24v66q0 13 10 23t24 10h66q14 0 23.5 -9.5t9.5 -23.5v-66zM812 233q0 -14 -9.5 -23.5t-23.5 -9.5h-33q-14 0 -24 9.5t-10 23.5v33q0 14 10 24t24 10h33q14 0 23.5 -10t9.5 -24v-33zM812 400
q0 -14 -9.5 -24t-23.5 -10h-33q-14 0 -24 10t-10 24v33q0 14 10 24t24 10h33q14 0 23.5 -10t9.5 -24v-33z" />
    <glyph glyph-name="zuoxi" unicode="&#xe50e;" 
d="M823 896h-623q-82 0 -141 -59t-59 -142v-622q0 -83 59 -142t141 -59h623q63 0 115 37h1v0q39 28 61.5 71t22.5 93v622q0 83 -58.5 142t-141.5 59zM200 -91q-30 0 -57 10v516q0 17 12.5 30t30.5 13t29.5 -12.5t11.5 -30.5v-338h587v338q0 17 12 30t30 13t30.5 -13
t12.5 -30v-508q-36 -18 -76 -18h-623zM772 435v-183h-503v183q0 29 -17.5 51t-45.5 29v47q0 26 18.5 44t44.5 18h503q26 0 44.5 -18.5t18.5 -43.5v-47q-28 -7 -45.5 -29.5t-17.5 -50.5zM772 210v-71h-503v71h503zM986 73q0 -67 -47 -115v477q0 29 -17.5 51t-45.5 29v47
q0 43 -30.5 73.5t-73.5 30.5h-503q-43 0 -73.5 -30.5t-30.5 -73.5v-47q-27 -7 -45 -29.5t-18 -50.5v-493q-30 22 -48 56.5t-18 73.5v623q0 68 48 116t116 48h622q68 0 116 -48t48 -116v-622v0z" />
    <glyph glyph-name="weizhi1" unicode="&#xe516;" 
d="M806 579v1q0 125 -88 213t-213 88t-213 -88t-88 -213q0 -82 41 -152l260 -526l261 527q41 69 41 150v1zM505 429q-62 0 -106 44t-44 106.5t44 106.5t106 44t106 -44t44 -106.5t-44 -106.5t-106 -44z" />
    <glyph glyph-name="zuoxia1" unicode="&#xe677;" 
d="M102 6q124 188 306 378q173 182 381 348q62 49 125 95q24 18 48 34q5 3 10 3q7 0 12 -4.5t5 -11.5q0 -10 -8 -15l-12 -8q-18 -13 -35 -25q-63 -46 -124 -95q-206 -164 -378 -344q-169 -176 -288 -352q32 24 108 69q24 14 45 25q11 5 18 8q3 2 6 2q7 0 12 -5t5 -12
q0 -11 -10 -15l-16 -8q-20 -10 -43 -23q-107 -64 -138 -92q-15 -14 -26 -21t-20.5 -6t-16.5 12q0 2 -1 3q-8 16 5 72q14 57 39.5 118t54.5 99q5 7 13 7q7 0 12 -5t5 -12q0 -5 -3 -10q-28 -36 -52.5 -93t-37.5 -109z" />
    <glyph glyph-name="xiangqu-on" unicode="&#xe64d;" 
d="M487.5 371q10.5 -9 24 -9t23.5 9q11 10 49.5 47.5t95 102.5t73.5 101q30 63 6 129q-20 57 -71 81q-33 15 -70 15q-65 0 -106 -42q-43 41 -107 41q-37 0 -70 -15q-51 -24 -71 -81q-24 -66 6 -128q17 -37 73.5 -101.5t95 -102.5t49 -47zM299 738q15 42 52 59q25 12 54 12
q49 0 81 -31q11 -10 25.5 -10t24.5 10q33 31 82 31q29 0 54 -11q37 -18 52 -60q18 -51 -5 -100q-28 -60 -207 -238q-33 29 -110 111t-98 127q-23 49 -5 100zM1017 662.5q-7 5.5 -16 3.5l-179 -43q-8 -2 -12 -8.5t-2 -14t8.5 -12t13.5 -2.5l157 38v-527l-288 -104l-399 115
q-5 2 -11 0l-251 -91v548q15 5 56 19t75.5 25.5t40.5 14.5q8 2 11.5 9t1 14.5t-9.5 11t-15 0.5q-18 -6 -185 -62v0q-13 -5 -13 -18v-589q0 -10 8 -15.5t17 -2.5l271 98l399 -114q2 -1 5 -1t6 1l306 110q12 5 12 18v564q0 9 -7 14.5zM315 432q0 7 -4.5 11.5t-11 4.5t-11 -4.5
t-4.5 -11.5v-73q0 -6 4.5 -11t11 -5t11 5t4.5 11v73zM299.5 292q-6.5 0 -11 -4.5t-4.5 -11.5v-73q0 -7 4.5 -11.5t11 -4.5t11 4.5t4.5 11.5v73q0 7 -4.5 11.5t-11 4.5zM716 340q0 6 -4.5 11t-11 5t-11 -5t-4.5 -11v-74q0 -6 4.5 -10.5t11 -4.5t11 4.5t4.5 10.5v74z
M700.5 199q-6.5 0 -11.5 -4.5t-5 -10.5v-74q0 -6 5 -10.5t11.5 -4.5t11 4.5t4.5 10.5v74q0 6 -4.5 10.5t-11 4.5z" />
    <glyph glyph-name="zhibo" unicode="&#xe60b;" 
d="M908 607l-163 -94v40q0 47 -32.5 80t-79.5 33h-448q-47 0 -79.5 -33t-32.5 -80v-367q0 -46 32.5 -79t79.5 -33h448q47 0 79.5 33t32.5 79v37l163 -94q22 -12 43 0t21 37v404q0 25 -21.5 37.5t-42.5 -0.5zM703 545v-343q0 -30 -21 -51.5t-51 -21.5h-441q-29 0 -50.5 21.5
t-21.5 51.5v343q0 30 21.5 51t50.5 21h441q30 0 51 -21t21 -51zM931 186l-186 87v186l186 89v-362z" />
    <glyph glyph-name="Dialogue" unicode="&#xe613;" 
d="M512 800q-107 0 -198.5 -49t-145 -133t-53.5 -183q0 -77 34.5 -138.5t106.5 -114.5v-166q0 -6 6 -13q4 -3 10 -3t6 3l154 83q7 -1 16.5 -1t22 0.5t19.5 0.5h25q112 0 204 45.5t144 125.5t52 178q0 99 -53.5 183t-146.5 133t-203 49zM515 118h-29q-6 0 -18.5 -0.5
t-22 -0.5t-16.5 1q-7 0 -10 -3l-131 -73v150q0 6 -6 13q-70 48 -102.5 103t-32.5 127q0 90 49 166.5t133 121.5t183 45q101 0 186.5 -45t135 -121.5t49.5 -166.5q0 -135 -105 -226t-263 -91zM752 544h-480q-16 0 -16 -16t16 -16h480q16 0 16 16t-16 16zM688 352h-352
q-16 0 -16 -16t16 -16h352q16 0 16 16t-16 16z" />
    <glyph glyph-name="home_qiehuan" unicode="&#xe71d;" 
d="M272 656v-634h122v874l-244 -240h122zM752 112v634h-122v-874l240 240h-118z" />
    <glyph glyph-name="remen" unicode="&#xe653;" 
d="M381 355zM582 138zM381 355q-4 1 -13.5 11.5t-13.5 17.5q-17 27 -26 52l-12 37q-1 3 -3 12t-4.5 15.5t-4.5 9.5q-7 8 -18.5 7t-17.5 -12q-4 -7 -10 -22t-8 -19t-4.5 -11t-3.5 -10q-15 -39 -24 -94q-5 -29 -5 -45q0 -36 1 -39q2 -32 10 -70q10 -43 30 -77q0 -1 3 -7
q9 -15 19 -29q13 -16 21 -26q10 -11 24 -23q12 -10 33 -24q16 -11 43 -22q8 -3 14 -5q1 -1 3 -1.5t4 -1.5q4 -1 7 -2l15 -3q0 -1 1.5 -1h1.5v0q-1 0 -2 1l-1 1l-3 2l-1 0.5t-1 1.5q-2 1 -3 2q-1 0 -1 1q-14 11 -18 18l-4 4q-1 2 -5 8l-4 6q0 1 -2 3l-0.5 1t-0.5 2
q-2 2 -4 6.5t-2.5 5.5t-1.5 3.5t-1 3.5q-1 1 -2 4q0 2 -1 3q-3 12 -5 23t-3 17v4v5v19v5v5q0 6 2 17q2 9 4 15v2t1 2q0 2 5 14q1 4 5 12l5 10l5 10q1 2 1 3q5 16 6 27q0 1 0.5 2.5t0.5 2.5q0 15 1 17q4 8 12 6q7 -2 17 -14l3 -4q1 -1 1 -2q13 -18 17 -50v-4l2 3q6 10 8 19
l0.5 1t0.5 2l5 15q4 16 7 42v16v8q0 17 -1 31q-2 12 -1 14q1 6 7 9q5 1 17 -5q7 -3 16 -10q14 -11 24 -23q0 -1 1 -1.5t1 -1t1 -2.5l5 -6q9 -12 17 -32v-1t1 -2q1 -2 3 -10l5 -18q2 -10 4 -28q2 -22 0 -47q-1 -4 -4 -25v-4q4 2 13 15q8 13 12 24l6 19q5 16 6 17q4 4 9.5 3.5
t7.5 -5.5q2 -4 5 -11t4 -9t2 -5.5t2 -4.5q7 -19 11 -45q3 -15 3 -22v-19q-2 -17 -6 -34q-4 -21 -14 -37q-1 -3 -2 -3q-3 -7 -8.5 -14.5t-10.5 -12.5q-5 -6 -8 -8q20 7 37 17q4 2 6 4l12 7l6 4l5 4q2 1 5 4q3 1 6 4l2 2q27 23 38 38l6 8q5 4 13 17q4 7 7 12q2 4 4 6q0 1 3 6
t7 14t5.5 12t3.5 8t2 6q1 3 5 14q8 24 12 47t5 35q0 3 0.5 9.5t0.5 9.5v40v10.5v9.5q-1 15 -4.5 36t-7.5 32q0 1 -0.5 3.5t-1.5 3.5q0 1 -11 29q-3 9 -11.5 26t-10.5 20l-9 20q0 1 -1 3.5t-1 3.5q-10 32 -13 56q-1 8 -1 10q0 4 0.5 11.5t0 13t-2.5 10.5q-3 6 -10 10t-15 2
q-14 -4 -36 -29l-6 -8q-1 -1 -1.5 -2t-1.5 -1q-25 -39 -34 -103q-1 -8 -1 -10l-3 6q-12 22 -17 39q-1 1 -1.5 3t-1.5 3l-9 32q-9 33 -14 87q-1 10 -2 32v17q0 38 3 65q3 24 2 30q-3 12 -15 17q-6 0 -7.5 1t-7 -1t-7 -2.5t-6.5 -3.5t-7 -3q-15 -8 -34 -22q-29 -24 -48 -48
q-1 -1 -2 -2.5t-1.5 -2.5t-2 -2t-1.5 -2l-10 -14q-18 -24 -34 -65q0 -1 -1 -3t-1 -3q-3 -7 -8 -22l-9 -36q-6 -21 -9 -59q-4 -45 1 -98q1 -9 7 -52z" />
    <glyph glyph-name="houtai_yingxiao_pintuan" unicode="&#xe62e;" 
d="M572 349h-114q-63 0 -120 -41q-66 -52 -76 -139q-3 -31 -3 -99t-3 -102q3 0 12.5 -3.5t12.5 -3.5q2 -1 21.5 -6.5t23.5 -6.5t21.5 -5.5t23 -5.5t20.5 -4.5t22.5 -5t21 -3.5t23 -3t21.5 -1.5t23 -0.5q95 0 139 7q38 7 114 35q7 0 7 14q6 55 6 159q0 80 -38 132
q-66 83 -158 83zM357 363q6 4 15.5 7.5t15.5 6.5q-57 63 -57 139h-132q-32 0 -70 -14q-53 -21 -89.5 -73.5t-36.5 -113.5v-174q0 -7 6 -14q101 -28 152 -34q9 0 31 -3.5t32 -3.5v41q0 42 6 63q27 119 127 173zM1002 391q-56 125 -184 125h-120q0 -87 -57 -139q3 0 6 -1.5
t5 -3.5l2 -2q53 -23 89 -62q56 -73 56 -167v-48q16 3 44.5 6.5t44.5 6.5q77 14 127 42q6 0 6 14v139q0 48 -19 90zM515 356q62 0 106 50t39 117q0 66 -43.5 112.5t-101.5 46.5q-62 0 -107 -46t-45 -113q5 -69 48 -118t104 -49zM698 537q38 -14 64 -14q62 0 106 49.5
t39 116.5q0 67 -43.5 113.5t-101.5 46.5q-63 0 -107.5 -46.5t-44.5 -113.5q38 -20 61 -60t27 -92zM256 523q47 0 75 21q11 88 70 131v7q0 67 -43.5 113.5t-101.5 46.5q-63 0 -107.5 -46.5t-44.5 -113.5q0 -63 45 -111t107 -48z" />
    <glyph glyph-name="huanxingfensi" unicode="&#xe620;" 
d="M517.5 95q-24.5 0 -42 17t-17.5 42h24q0 -15 10.5 -25.5t25 -10.5t25 10.5t10.5 25.5h24q0 -25 -17.5 -42t-42 -17zM581 596h-24q0 17 -11 32.5t-24.5 15.5t-24.5 -16t-11 -32h-24q0 26 18 49t42 23t41.5 -23t17.5 -49zM352 141q-26 0 -43 12.5t-24 30.5q-8 22 -0.5 44
t27.5 34q13 7 19.5 24.5t7.5 33t1 47.5q-1 91 16 138q11 31 32 53.5t41 33.5t42.5 17t31.5 7t14 1v0q5 0 8.5 -3.5t3.5 -8.5t-3.5 -8.5t-8.5 -3.5t-13 -1t-27.5 -6t-36 -14.5t-34.5 -29t-27 -45.5q-16 -43 -16 -130q0 -36 -1 -53.5t-10 -39.5t-28 -33q-13 -8 -17 -22.5
t1 -26.5q12 -34 58 -26h2h154q5 0 8.5 -3.5t3.5 -8.5t-3.5 -8.5t-8.5 -3.5h-153q-9 -1 -17 -1zM407 454h-3q-12 4 -8 15q14 49 52 80q9 8 16.5 -1.5t-1.5 -16.5q-33 -27 -45 -69q-2 -8 -11 -8zM687 141q-8 0 -17 1h-152q-5 0 -8.5 3.5t-3.5 8.5t3.5 8.5t8.5 3.5h153h2
q46 -8 59 26q5 12 0.5 26.5t-17.5 22.5q-18 11 -27 33t-10.5 39.5t-1.5 53.5q0 87 -15 130q-31 85 -139 96q-4 0 -7.5 3.5t-3.5 8.5t3.5 8.5t8 3.5t13.5 -1t31.5 -7t42.5 -17t41 -33.5t32 -53.5q17 -47 17 -138q0 -32 1 -47t7 -33t20 -25q19 -12 26.5 -34t-0.5 -44
q-7 -18 -24 -30.5t-43 -12.5z" />
    <glyph glyph-name="dateselect" unicode="&#xe67e;" horiz-adv-x="1638" 
d="M1141 744h-44q-14 0 -28 -10.5t-14 -22.5v-67q0 -43 -24 -73.5t-62 -30.5q-40 0 -69 29t-29 69v73q0 13 -13 27.5t-27 14.5h-132q-14 0 -29.5 -15.5t-15.5 -29.5v-66q0 -43 -23.5 -73.5t-62.5 -30.5t-65 30.5t-26 73.5v44q0 20 -14.5 32.5t-29.5 12.5h-44
q-30 0 -48.5 -15.5t-18.5 -44.5v-667q0 -29 20 -49.5t49 -20.5h748q28 0 48.5 20.5t20.5 49.5v667q1 31 -18.5 52t-48.5 21v0zM1121 69q0 -12 -16 -28.5t-28 -16.5h-620q-11 0 -27.5 16.5t-16.5 28.5v376q0 12 16.5 28t27.5 16h620q21 0 32.5 -12t11.5 -32v-376zM745 423h67
q18 0 31 -13t13 -31v-67q0 -18 -13 -31t-31 -13h-67q-18 0 -31 13t-13 31v67q0 18 13 31t31 13zM966 423h67q18 0 31 -13t13 -31v-67q0 -18 -13 -31t-31 -13h-67q-18 0 -31 13t-13 31v67q0 18 13 31t31 13zM745 224h67q18 0 31 -13t13 -32v-66q0 -18 -13 -31t-31 -13h-67
q-18 0 -31 13t-13 31v66q0 19 13 32t31 13zM966 224h67q18 0 31 -13t13 -32v-66q0 -18 -13 -31t-31 -13h-67q-18 0 -31 13t-13 31v66q0 19 13 32t31 13zM524 224h66q18 0 31 -13t13 -32v-66q0 -18 -13 -31t-31 -13h-66q-19 0 -32 13t-13 31v66q0 19 13 32t32 13zM568 844
q28 0 47 -19.5t19 -47.5v-133q0 -28 -19 -47t-47 -19t-47 19t-19 47v133q0 28 19 47.5t47 19.5zM966.5 844q28.5 0 47.5 -19.5t19 -47.5v-133q0 -28 -19 -47t-47.5 -19t-47.5 19t-19 47v133q0 28 19 47.5t47.5 19.5z" />
    <glyph glyph-name="FlyAccordion" unicode="&#xe508;" 
d="M156 -52h-123v872h123v-872zM308 820h-123v-872h123v872zM460 820h-123v-872h123v872zM991 820h-502v-872h502v872z" />
  </font>
</defs>
</svg>
